<svg version="1.1" xmlns="http://www.w3.org/2000/svg" xmlns:xlink="http://www.w3.org/1999/xlink" width="30.52365" height="32" viewBox="0,0,30.52365,32"><g transform="translate(-101.45001,-36.1)"><g data-paper-data="{&quot;isPaintingLayer&quot;:true}" fill-rule="nonzero" stroke="#000000" stroke-width="2" stroke-linecap="butt" stroke-linejoin="miter" stroke-miterlimit="10" stroke-dasharray="" stroke-dashoffset="0" style="mix-blend-mode: normal"><path d="M115.60001,41.8c0,-0.27614 0.22386,-0.5 0.5,-0.5c0.27614,0 0.5,0.22386 0.5,0.5c0,0.27614 -0.22386,0.5 -0.5,0.5c-0.27614,0 -0.5,-0.22386 -0.5,-0.5z" fill="#ffb6b6"/><path d="M130.97366,52.1c0,8.28427 -6.38524,15 -14.26183,15c-7.87659,0 -14.26183,-6.71573 -14.26183,-15c0,-8.28427 6.38524,-15 14.26183,-15c7.87659,0 14.26183,6.71573 14.26183,15z" fill="#ffb6b6"/><path d="M112.12,59.56v-15h2.2v15z" fill="#000000"/><path d="M120.13793,59.26v-14.28876h2.91957v14.28876z" fill="#000000"/></g></g></svg>